<?xml version="1.0" standalone="no"?>
<!DOCTYPE svg PUBLIC "-//W3C//DTD SVG 20010904//EN"
 "http://www.w3.org/TR/2001/REC-SVG-20010904/DTD/svg10.dtd">
<svg version="1.0" xmlns="http://www.w3.org/2000/svg"
 width="250.000000pt" height="240.000000pt" viewBox="0 0 250.000000 240.000000"
 preserveAspectRatio="xMidYMid meet">

<g transform="translate(0.000000,240.000000) scale(0.100000,-0.100000)"
fill="#000000" stroke="none">
<path d="M1315 1367 c-27 -6 -53 -16 -57 -21 -12 -17 -8 -108 5 -139 l12 -29
40 44 c44 47 85 116 85 142 0 18 -11 18 -85 3z"/>
<path d="M807 913 c-11 -10 -8 -133 2 -133 6 0 11 21 13 48 l3 47 22 -47 c12
-27 26 -48 30 -48 4 0 18 22 30 48 l21 47 1 -47 c2 -77 21 -56 21 22 0 42 -4
70 -11 70 -5 0 -22 -26 -37 -57 l-26 -58 -25 58 c-25 56 -31 63 -44 50z"/>
<path d="M1500 850 l0 -70 33 0 c51 0 77 24 77 70 0 46 -26 70 -77 70 l-33 0
0 -70z m78 38 c7 -7 12 -27 12 -45 0 -27 -5 -35 -26 -43 -41 -16 -44 -13 -44
45 0 51 2 55 23 55 13 0 28 -5 35 -12z"/>
<path d="M1640 850 l0 -70 34 0 c43 0 70 24 56 49 -5 10 -6 28 -3 39 8 31 -14
52 -53 52 l-34 0 0 -70z m70 30 c0 -15 -7 -20 -25 -20 -18 0 -25 5 -25 20 0
15 7 20 25 20 18 0 25 -5 25 -20z m6 -52 c8 -12 -21 -38 -43 -38 -7 0 -13 11
-13 25 0 20 5 25 24 25 14 0 28 -5 32 -12z"/>
<path d="M987 872 c-22 -24 -21 -55 1 -75 37 -34 92 -11 92 38 0 50 -60 73
-93 37z m71 -31 c5 -32 -23 -54 -49 -40 -19 10 -26 49 -12 63 4 4 19 6 33 4
18 -2 26 -10 28 -27z"/>
<path d="M1100 835 c0 -42 3 -55 15 -55 11 0 15 12 15 45 0 41 2 45 25 45 23
0 25 -4 25 -45 0 -35 4 -45 16 -45 14 0 16 7 11 40 -7 55 -22 70 -68 70 l-39
0 0 -55z"/>
<path d="M1242 878 c-17 -17 -15 -73 3 -88 9 -7 27 -10 45 -6 34 6 41 -12 14
-35 -13 -10 -19 -10 -36 0 -21 13 -34 9 -23 -8 3 -6 22 -11 40 -11 44 0 55 20
55 97 l0 59 -43 2 c-24 1 -49 -4 -55 -10z m72 -24 c9 -24 8 -31 -10 -48 -12
-12 -20 -13 -35 -6 -18 10 -26 50 -12 63 12 13 51 7 57 -9z"/>
<path d="M1373 864 c-15 -24 -15 -29 -2 -53 16 -29 61 -40 85 -20 21 18 18 76
-5 89 -33 17 -60 11 -78 -16z m75 -26 c4 -35 -29 -56 -52 -32 -18 17 -19 24
-10 49 4 10 16 15 33 13 20 -2 27 -9 29 -30z"/>
</g>
</svg>
